HIERARCHY
ROOT Hips
{
	OFFSET -3.958830 18.904000 13.208200
	CHANNELS 6 Xposition Yposition Zposition Zrotation Yrotation Xrotation 
	JOINT LHipJoint
	{
		OFFSET 0.000000 0.000000 0.000000
		CHANNELS 3 Zrotation Yrotation Xrotation
		JOINT LeftUpLeg
		{
			OFFSET 1.800000 -1.400000 0.085000
			CHANNELS 3 Zrotation Yrotation Xrotation
			JOINT LeftLeg
			{
				OFFSET 2.215000 -6.000000 0.000000
				CHANNELS 3 Zrotation Yrotation Xrotation
				JOINT LeftFoot
				{
					OFFSET 2.500000 -6.900000 0.000000
					CHANNELS 3 Zrotation Yrotation Xrotation
					JOINT LeftToeBase
					{
						OFFSET 0.200000 -0.500000 1.950000
						CHANNELS 3 Zrotation Yrotation Xrotation
						End Site
						{
							OFFSET 0.000000 0.000000 0.000000
						}
					}
				}
			}
		}
	}
	JOINT RHipJoint
	{
		OFFSET 0.000000 0.000000 0.000000
		CHANNELS 3 Zrotation Yrotation Xrotation
		JOINT RightUpLeg
		{
			OFFSET -1.800000 -1.400000 0.085000
			CHANNELS 3 Zrotation Yrotation Xrotation
			JOINT RightLeg
			{
				OFFSET -2.215000 -6.000000 0.000000
				CHANNELS 3 Zrotation Yrotation Xrotation
				JOINT RightFoot
				{
					OFFSET -2.500000 -6.900000 0.000000
					CHANNELS 3 Zrotation Yrotation Xrotation
					JOINT RightToeBase
					{
						OFFSET -0.200000 -0.500000 1.950000
						CHANNELS 3 Zrotation Yrotation Xrotation
						End Site
						{
							OFFSET 0.000000 0.000000 0.000000
						}
					}
				}
			}
		}
	}
	JOINT LowerBack
	{
		OFFSET 0.000000 0.000000 0.000000
		CHANNELS 3 Zrotation Yrotation Xrotation
		JOINT Spine
		{
			OFFSET -0.087000 1.940000 -0.288900
			CHANNELS 3 Zrotation Yrotation Xrotation
			JOINT Spine1
			{
				OFFSET 0.000000 1.950000 0.060000
				CHANNELS 3 Zrotation Yrotation Xrotation
				JOINT Neck
				{
					OFFSET 0.000000 0.000000 0.000000
					CHANNELS 3 Zrotation Yrotation Xrotation
					JOINT Neck1
					{
						OFFSET 0.000000 1.600000 0.340000
						CHANNELS 3 Zrotation Yrotation Xrotation
						JOINT Head
						{
							OFFSET 0.000000 1.667000 -0.240000
							CHANNELS 3 Zrotation Yrotation Xrotation
							End Site
							{
								OFFSET 0.000000 0.000000 0.000000
							}
						}
					}
				}
				JOINT LeftShoulder
				{
					OFFSET 0.000000 0.000000 0.000000
					CHANNELS 3 Zrotation Yrotation Xrotation
					JOINT LeftArm
					{
						OFFSET 2.700000 1.550000 -0.730000
						CHANNELS 3 Zrotation Yrotation Xrotation
						JOINT LeftForeArm
						{
							OFFSET 5.450000 0.000000 0.000000
							CHANNELS 3 Zrotation Yrotation Xrotation
							JOINT LeftHand
							{
								OFFSET 3.450000 0.000000 0.000000
								CHANNELS 3 Zrotation Yrotation Xrotation
								JOINT LeftHandIndex1
								{
									OFFSET 0.750000 0.000000 0.000000
									CHANNELS 3 Zrotation Yrotation Xrotation
									End Site
									{
										OFFSET 0.000000 0.000000 0.000000
									}
								}
							}
						}
					}
				}
				JOINT RightShoulder
				{
					OFFSET 0.000000 0.000000 0.000000
					CHANNELS 3 Zrotation Yrotation Xrotation
					JOINT RightArm
					{
						OFFSET -2.700000 1.550000 -0.730000
						CHANNELS 3 Zrotation Yrotation Xrotation
						JOINT RightForeArm
						{
							OFFSET -5.450000 0.000000 0.000000
							CHANNELS 3 Zrotation Yrotation Xrotation
							JOINT RightHand
							{
								OFFSET -3.450000 0.000000 0.000000
								CHANNELS 3 Zrotation Yrotation Xrotation
								JOINT RightHandIndex1
								{
									OFFSET -0.750000 0.000000 0.000000
									CHANNELS 3 Zrotation Yrotation Xrotation
									End Site
									{
										OFFSET 0.000000 0.000000 0.000000
									}
								}
							}
						}
					}
				}
			}
		}
	}
}
MOTION
Frames: 10
Frame Time: 0.016667
-2.271190 16.832110 -8.092620 -12.391138 12.621925 -16.760975 -15.322101 12.553526 2.757030 7.736298 -4.166221 -0.156733 -19.157016 13.327190 26.623553 0.691216 7.909590 1.838223 0.237430 0.204740 0.174110 18.491913 -8.529734 4.868670 14.420153 11.117000 -53.746328 -27.551074 5.460304 79.805177 -2.224152 -12.503005 0.222755 0.199760 0.070530 0.042660 -3.697917 -3.754435 -8.911983 9.927947 -9.303757 33.892838 -3.086201 -5.928188 11.072162 -0.918940 1.355420 -9.238711 -4.177324 -1.923287 43.121512 4.078480 -1.114010 -5.130340 -19.171526 -17.815954 -0.087143 -11.243788 -35.048657 3.405456 106.344691 -57.622102 -69.527619 -3.638371 1.868685 0.170890 0.041080 0.023400 0.050740 21.117869 10.652647 9.630872 35.140107 -10.362908 -4.280716 -8.057241 5.615831 -0.136979 2.564699 -1.288735 -0.092090 0.153060 -0.024220 -0.081830 
-2.427790 16.871770 -8.048690 -13.457281 9.978426 -18.367887 -15.359489 12.457419 2.568834 10.023460 -4.126921 1.540734 -18.864834 13.384033 25.969374 0.733346 7.988856 1.825222 0.206130 0.173640 0.141950 18.530375 -8.074574 5.335669 20.811183 13.920023 -56.416566 -42.504680 16.704002 75.480745 -2.786927 -14.572899 -0.248133 0.172630 0.091200 0.038530 -3.631240 -4.103916 -9.090026 9.253941 -10.225101 35.236920 -3.490803 -6.334782 11.749178 -0.336403 1.152635 -9.753402 -4.794190 -0.316012 44.531994 4.580680 -0.295350 -3.392120 -20.528600 -19.451420 -0.177284 -13.199904 -35.157871 2.145525 96.079916 -60.122251 -59.671112 -3.500877 1.569207 0.153040 0.051540 0.007520 0.054110 21.329634 11.768893 11.010078 31.129800 -12.203404 -3.324183 -10.007297 2.160644 0.262121 2.639497 -1.314231 -0.091000 0.141490 -0.015960 -0.069570 
-2.552920 16.971300 -8.019000 -13.922375 5.655392 -18.597972 -15.389002 12.288872 2.384902 11.463658 -3.695736 2.878769 -18.868891 13.142026 24.047644 0.722742 7.896569 1.865635 0.179900 0.137020 0.134140 18.578445 -7.574556 5.839364 27.311973 18.023305 -57.439165 -59.905165 23.693858 63.081556 -3.131137 -15.753773 -0.491090 0.150390 0.100290 0.047890 -3.610996 -4.280878 -9.289473 9.165177 -10.768910 35.573739 -4.405607 -6.035424 12.422369 0.660236 0.802247 -9.963658 -5.579025 1.436216 46.392067 3.496790 1.191350 -1.638450 -22.085180 -20.010738 -0.050573 -16.972153 -34.839633 1.032469 84.265053 -61.598539 -49.521506 -3.435302 1.591561 0.142140 0.072780 -0.005010 0.045850 20.873007 12.344322 11.574655 26.661370 -12.014531 -2.572853 -12.987780 -1.849734 0.762527 2.724656 -1.361244 -0.094780 0.122180 -0.003750 -0.076090 
-2.672290 17.111850 -7.973840 -13.722966 2.923048 -18.316442 -15.387185 12.260992 2.191837 11.423158 -2.910437 4.258288 -17.125495 12.175599 21.900374 0.662169 7.506397 2.020267 0.149990 0.098950 0.104750 18.617351 -7.344017 6.111289 33.245369 21.341759 -57.612472 -78.399324 24.364461 47.316094 -3.070129 -15.233139 -0.345644 0.128500 0.127940 0.053620 -3.664958 -4.362030 -9.365141 9.284822 -11.852868 35.156169 -5.832557 -6.355491 12.551153 1.531729 -0.305086 -10.017261 -7.845010 3.199696 47.562207 2.639740 1.677980 0.211990 -23.500149 -19.759003 0.144976 -19.975041 -33.745034 -0.295845 68.707214 -62.414953 -38.325110 -3.470406 1.915663 0.117380 0.095510 -0.030080 0.047980 20.580135 12.641646 11.660438 21.207408 -11.473197 -2.446613 -17.766812 -3.838490 1.134513 2.782236 -1.450288 -0.096050 0.113370 0.012480 -0.064970 
-2.779810 17.277720 -7.947370 -13.342395 -0.248339 -16.754737 -15.384236 12.140725 2.023989 10.931980 -2.039613 4.897716 -15.871469 11.002747 18.429530 0.569855 6.957695 2.218071 0.146180 0.098340 0.087000 18.688285 -7.029350 6.463365 36.403713 25.154122 -58.884146 -85.084477 25.847101 45.428040 -3.167553 -15.577962 -0.411468 0.129680 0.138380 0.051520 -3.783210 -4.422892 -9.432122 10.302600 -13.019364 34.035238 -7.334183 -6.685359 12.409453 2.209674 -2.363230 -10.200403 -11.954379 5.493261 46.773933 1.992430 2.117670 0.630710 -24.110341 -18.319941 0.432521 -24.255973 -32.916715 -0.577058 56.455874 -60.876691 -30.264346 -3.525807 2.241385 0.100820 0.099250 -0.043400 0.051940 19.769109 12.567290 11.506677 16.722971 -11.255133 -2.213960 -18.715555 -0.635987 0.607295 2.740002 -1.477401 -0.092220 0.112720 0.018730 -0.053550 
-2.869250 17.493220 -7.921990 -12.968568 -1.891007 -14.942769 -15.371271 12.125129 1.856565 9.653687 -1.340269 4.191375 -13.494889 9.738762 16.411372 0.426917 6.366946 2.434153 0.130540 0.078340 0.081940 18.737314 -6.918601 6.629189 38.796926 27.824200 -60.565589 -94.109584 25.357881 39.584558 -3.116446 -15.259856 -0.322983 0.130370 0.165730 0.053430 -3.891271 -4.471845 -9.400219 11.366804 -14.600413 32.677349 -9.127687 -7.564002 11.921936 3.105433 -3.711004 -9.812963 -14.406305 7.268623 45.410742 0.625200 3.145160 0.812260 -25.117769 -16.269862 0.448549 -28.192865 -32.654860 -0.087441 46.482846 -56.982406 -23.134331 -3.616763 2.476525 0.088310 0.125370 -0.063560 0.050410 18.982797 11.150697 10.581352 13.468725 -11.599547 -2.517875 -21.030017 7.225449 -0.502812 2.613182 -1.534041 -0.109310 0.128570 0.032720 -0.055950 
-2.962660 17.793430 -7.948190 -11.787992 -6.196043 -14.082275 -15.404001 12.175156 1.756914 6.931195 -0.544789 2.860050 -10.702541 8.557132 15.631989 0.295128 5.711810 2.634287 0.153830 0.105280 0.127170 18.730648 -6.860635 6.815581 46.906674 27.754679 -53.882711 -105.252525 17.911965 24.833076 -2.842009 -13.713314 0.051341 0.135840 0.120180 0.058740 -3.876840 -4.511271 -9.407628 10.397012 -14.432746 33.499524 -10.230266 -7.044290 11.649839 3.910251 -4.497466 -9.667787 -16.529856 9.182130 46.767234 -0.887120 4.758310 0.417990 -26.361894 -15.501231 0.246422 -29.181119 -32.408058 -0.522745 36.130168 -48.065053 -15.126170 -3.701685 2.698806 0.109270 0.108800 -0.028060 0.035310 18.601800 11.185433 10.169579 10.233564 -12.207486 -3.104477 -23.780477 14.478671 -1.668482 2.513465 -1.588861 -0.095900 0.117040 0.019450 -0.074780 
-3.082270 18.054980 -7.948440 -10.940490 -10.368784 -12.906913 -15.441825 12.009536 1.681994 6.896091 -0.192136 2.814605 -10.393552 8.077835 13.518659 0.231051 5.458894 2.705609 0.207560 0.175270 0.179300 18.750783 -6.586789 7.146909 46.769891 29.401082 -52.327133 -103.295491 23.563709 32.016180 -3.041013 -14.528210 -0.151166 0.176660 0.086170 0.072510 -3.931949 -4.383844 -9.512743 10.145265 -13.844314 33.818847 -11.290452 -6.220760 10.501698 4.480342 -5.016474 -8.495589 -17.357661 10.309128 46.876514 -2.200480 5.908250 -0.975860 -27.790546 -13.380799 -0.715474 -30.116491 -32.662869 0.322189 29.010415 -39.914635 -10.149117 -3.774925 2.795344 0.113680 0.106660 0.001210 0.032510 18.740596 9.666557 8.629979 6.894051 -10.750079 -3.859889 -33.332950 14.410858 -2.766413 2.550732 -1.703545 -0.077020 0.115280 -0.001960 -0.087420 
-3.212660 18.330490 -7.919770 -10.620727 -15.122503 -12.358551 -15.478162 11.804978 1.599279 8.418473 -0.102609 3.844007 -11.065108 8.216573 12.407701 0.251762 5.580175 2.657610 0.232890 0.210420 0.192970 18.782010 -6.244843 7.514754 43.390464 32.330740 -51.883662 -90.141713 31.984903 50.806482 -3.524848 -16.763179 -0.664433 0.203120 0.077250 0.072710 -4.065424 -4.153518 -9.635640 10.433760 -13.228148 34.255148 -12.239689 -5.403428 9.508162 4.853667 -5.767815 -8.008035 -19.047260 12.951503 48.012176 -1.912850 7.443050 -0.675040 -28.852755 -11.919671 -0.933861 -30.592696 -31.051415 0.228732 24.914594 -31.458075 -7.285659 -3.844746 2.865150 0.118550 0.103060 0.011540 0.036010 18.909862 9.127669 7.319743 3.533728 -8.322703 -4.388821 -38.276367 17.414143 -4.198887 2.535119 -1.742499 -0.075890 0.113520 -0.010990 -0.091910 
-3.270170 18.583790 -7.937730 -10.704842 -14.335483 -12.050517 -15.430675 11.896734 1.444843 9.909605 -0.613132 1.679962 -10.848562 8.991596 16.924086 0.243724 5.846803 2.534380 0.237030 0.210400 0.203690 18.823936 -6.287531 7.562125 34.556091 32.444955 -58.765238 -67.424375 34.727022 77.085356 -4.253249 -20.231549 -1.352195 0.200470 0.061160 0.073860 -4.164866 -4.153071 -9.531493 11.367505 -15.224085 35.389651 -13.348927 -7.156683 8.787702 5.284190 -6.877851 -8.151077 -21.721888 14.419309 47.008641 -3.124960 7.804450 -0.755090 -28.448232 -11.459511 -0.499300 -31.661064 -29.405853 0.526817 20.943611 -22.286150 -4.936231 -3.907643 2.921199 0.122440 0.094800 0.019130 0.031040 17.769745 9.015854 6.705875 2.937940 -8.459781 -5.309326 -44.019304 23.083059 -6.796175 2.488617 -1.766717 -0.070280 0.108720 -0.012480 -0.095020 
